<svg id="图层_1" style="cursor:pointer" data-name="图层 1" xmlns="http://www.w3.org/2000/svg" viewBox="0 0 231.48 68.38"><defs><style>.cls-1{fill:#f3d6a5;}</style></defs><title>logo</title><path class="cls-1" d="M243.08,311.3v-2.94h36.85v2.94H277.4v19.56a3.5,3.5,0,0,1-1.22,2.74A6.24,6.24,0,0,1,271.9,335h-6.36V332H271q2.69,0,2.69-1.88V311.3H243.08Zm1.18,15.75v-9.58q0-3.13,4.07-3.13h14.91a7.87,7.87,0,0,1,3.47.56A2.19,2.19,0,0,1,268,317v10.49a2.7,2.7,0,0,1-.86,2.18,3.62,3.62,0,0,1-1.93.81,11.79,11.79,0,0,1-1.26.06H248.26q-2.71,0-3.61-1.46A4,4,0,0,1,244.27,327.06Zm5.2,0.56h13.09a2.86,2.86,0,0,0,1.33-.22,1.22,1.22,0,0,0,.44-1.14v-8a0.91,0.91,0,0,0-.42-0.89,3.61,3.61,0,0,0-1.46-.19H249.55q-1.51,0-1.51.94v8.41a1,1,0,0,0,.36.92A2.76,2.76,0,0,0,249.47,327.62Z" transform="translate(-178.51 -299.78)"/><path class="cls-1" d="M286.21,334.87V332a1,1,0,0,0,.66-0.16,1.37,1.37,0,0,0,.26-1l0-2.13h3.71v2.24a3.5,3.5,0,0,1-1.87,3.23A6.36,6.36,0,0,1,286.21,334.87Zm10-19.56v-7.09h3.71v1.63H322.5v2.9H299.88v2.57H317.5a6.4,6.4,0,0,1,4,1.14,3,3,0,0,1,1.41,2.44v4a3.49,3.49,0,0,1-1.45,2.9,6.24,6.24,0,0,1-3.91,1.08H292.43q-5.92,0-5.92-4v-3.74A3.51,3.51,0,0,1,288.6,316a8.42,8.42,0,0,1,4-.72ZM292.91,324h23.78a3.18,3.18,0,0,0,1.85-.49,2.08,2.08,0,0,0,.68-1.85V320.1q0-1.89-2.89-1.89H292.55a2.7,2.7,0,0,0-1.71.5,1.71,1.71,0,0,0-.66,1.39v1.64a2.1,2.1,0,0,0,.78,1.93A3.76,3.76,0,0,0,292.91,324Zm5,10.71v-6.09h3.71v6.09h-3.71Zm10.72,0v-6.09h3.71v6.09h-3.71Zm10.9,0v-6.09h3.71v6.09h-3.71Z" transform="translate(-178.51 -299.78)"/><path class="cls-1" d="M329.81,311.3v-2.94h36.85v2.94h-2.53v19.56a3.5,3.5,0,0,1-1.22,2.74,6.24,6.24,0,0,1-4.27,1.36h-6.36V332h5.46q2.69,0,2.69-1.88V311.3H329.81ZM331,327.06v-9.58q0-3.13,4.07-3.13H350a7.87,7.87,0,0,1,3.47.56,2.19,2.19,0,0,1,1.3,2.07v10.49a2.7,2.7,0,0,1-.86,2.18,3.62,3.62,0,0,1-1.93.81,11.79,11.79,0,0,1-1.26.06H335q-2.71,0-3.61-1.46A4,4,0,0,1,331,327.06Zm5.2,0.56h13.09a2.86,2.86,0,0,0,1.33-.22,1.22,1.22,0,0,0,.44-1.14v-8a0.91,0.91,0,0,0-.42-0.89,3.61,3.61,0,0,0-1.46-.19H336.28q-1.51,0-1.51.94v8.41a1,1,0,0,0,.36.92A2.76,2.76,0,0,0,336.2,327.62Z" transform="translate(-178.51 -299.78)"/><path class="cls-1" d="M372.9,334.84v-2.4q7.85-.41,12-2.11a8.39,8.39,0,0,0,4.08-3,6.11,6.11,0,0,0,.7-1.89h3.51a5,5,0,0,0,1.75,2.9,18.08,18.08,0,0,0,7.37,3.3,42.27,42.27,0,0,0,7.65.85v2.32a44.71,44.71,0,0,1-11.62-1.36,17.37,17.37,0,0,1-4.62-2.08,21.54,21.54,0,0,1-2.19-1.71,20.84,20.84,0,0,1-4.28,2.8,27.43,27.43,0,0,1-8.17,2Q376.77,334.74,372.9,334.84Zm0.52-21.6V311a1.57,1.57,0,0,0,1.16-.7,8.49,8.49,0,0,0,.48-1.8h4l-0.46,1.82h2l0.14-2.08h3.93l-0.18,2.08h6.18v2.32h-6.4a14.74,14.74,0,0,1-.38,1.66h6.92v2.22h-8a11.21,11.21,0,0,1-3.43,2.83,24.14,24.14,0,0,1-5.58,2v-2.47a11.07,11.07,0,0,0,4.66-2.35H373.6v-2.22h6.34q0.18-.81.34-1.66l-3.77,0A9.21,9.21,0,0,1,373.42,313.24Zm1,16.9V324a2,2,0,0,1,.82-1.61,5.45,5.45,0,0,1,3.39-.81h25.29a7.33,7.33,0,0,1,2.89.38,2.15,2.15,0,0,1,1.49,1.75v6.44h-3.89v-5a0.74,0.74,0,0,0-.3-0.61,3.25,3.25,0,0,0-1.77-.3h-21.7a10.68,10.68,0,0,0-1.45,0,0.93,0.93,0,0,0-.86.85v5h-3.91Zm8.69-12.83,3.71,0v0.64q0,0.58,1.12.56l2.73,0v2.16l-4.37,0a4.2,4.2,0,0,1-2.53-.72,1.57,1.57,0,0,1-.66-1.32v-1.28Zm9.07-4.07V311a1.64,1.64,0,0,0,1.18-.7,8.11,8.11,0,0,0,.46-1.8h4l-0.46,1.82h1.95l0.16-2.08h3.93l-0.18,2.08h6.16v2.32H403a15,15,0,0,1-.38,1.66h6.92v2.22h-8a11.19,11.19,0,0,1-3.43,2.83,23.7,23.7,0,0,1-5.58,2v-2.47a11.08,11.08,0,0,0,4.68-2.35h-4.76v-2.22h6.34q0.18-.81.36-1.66l-3.79,0A9.22,9.22,0,0,1,392.19,313.24Zm9.65,4.07,3.71,0v0.64q0,0.58,1.12.56l2.73,0v2.16l-4.38,0a4.2,4.2,0,0,1-2.53-.72,1.57,1.57,0,0,1-.66-1.32v-1.28Z" transform="translate(-178.51 -299.78)"/><path class="cls-1" d="M250.32,342.41h2.42v9.1h0.08c0.5-.73,1-1.4,1.47-2l5.72-7.08h3l-6.78,8,7.3,10.86h-2.86L254.51,352l-1.78,2.07v7.2h-2.42V342.41Z" transform="translate(-178.51 -299.78)"/><path class="cls-1" d="M273.81,352.44h-7.28v6.8h8.11v2H264.12V342.41h10.11v2h-7.69v6h7.28v2Z" transform="translate(-178.51 -299.78)"/><path class="cls-1" d="M276.53,342.67a34.38,34.38,0,0,1,5.14-.39c3.47,0,5.94.81,7.58,2.35a8.73,8.73,0,0,1,2.64,6.78,10,10,0,0,1-2.69,7.34c-1.75,1.76-4.64,2.72-8.28,2.72a38.77,38.77,0,0,1-4.39-.22V342.67ZM279,359.36a15.22,15.22,0,0,0,2.44.14c5.17,0,8-2.91,8-8,0-4.45-2.47-7.28-7.58-7.28a13.65,13.65,0,0,0-2.83.25v14.9Z" transform="translate(-178.51 -299.78)"/><path class="cls-1" d="M296.2,342.41v18.87h-2.42V342.41h2.42Z" transform="translate(-178.51 -299.78)"/><path class="cls-1" d="M302.2,355.35l-1.94,5.94h-2.5l6.36-18.87H307l6.39,18.87h-2.58l-2-5.94H302.2Zm6.14-1.9L306.5,348c-0.42-1.23-.69-2.35-1-3.44h-0.05c-0.28,1.12-.58,2.27-0.94,3.42l-1.83,5.46h5.64Z" transform="translate(-178.51 -299.78)"/><path class="cls-1" d="M314.92,361.29V342.41h2.64l6,9.55a53.56,53.56,0,0,1,3.36,6.13l0.06,0c-0.22-2.52-.28-4.82-0.28-7.76v-7.9H329v18.87h-2.44l-5.94-9.58a60.13,60.13,0,0,1-3.5-6.3l-0.08,0c0.14,2.38.19,4.65,0.19,7.78v8.06h-2.28Z" transform="translate(-178.51 -299.78)"/><path class="cls-1" d="M331.94,342.41h2.42v9.1h0.08c0.5-.73,1-1.4,1.47-2l5.72-7.08h3l-6.78,8,7.3,10.86H342.3L336.14,352l-1.78,2.07v7.2h-2.42V342.41Z" transform="translate(-178.51 -299.78)"/><path class="cls-1" d="M355.44,352.44h-7.28v6.8h8.11v2H345.75V342.41h10.11v2h-7.69v6h7.28v2Z" transform="translate(-178.51 -299.78)"/><path class="cls-1" d="M356.88,359.86l10.39-15.32v-0.08h-9.5v-2h12.64v1.48l-10.33,15.26v0.08h10.47v2H356.88v-1.43Z" transform="translate(-178.51 -299.78)"/><path class="cls-1" d="M375.3,355.35l-1.94,5.94h-2.5l6.36-18.87h2.92l6.39,18.87h-2.58l-2-5.94H375.3Zm6.14-1.9L379.6,348c-0.42-1.23-.69-2.35-1-3.44h-0.05c-0.28,1.12-.58,2.27-0.94,3.42l-1.83,5.46h5.64Z" transform="translate(-178.51 -299.78)"/><path class="cls-1" d="M388,361.29V342.41h2.64l6,9.55a53.56,53.56,0,0,1,3.36,6.13l0.06,0c-0.22-2.52-.28-4.82-0.28-7.76v-7.9h2.28v18.87h-2.44l-5.94-9.58a60.13,60.13,0,0,1-3.5-6.3l-0.08,0c0.14,2.38.19,4.65,0.19,7.78v8.06H388Z" transform="translate(-178.51 -299.78)"/><path class="cls-1" d="M228.22,313.38a1.63,1.63,0,0,0-2.11.93,1.61,1.61,0,0,0-.09.79L222.11,317s-1.47-.45-0.75-2.79l1.18-3h0a1.79,1.79,0,1,0-.73-0.54l-2.47,2.06c-1.48,1.4-3.24-1.7-3.47-4.85a19.4,19.4,0,0,1,.17-3.94,2.06,2.06,0,1,0-1-.39,19.42,19.42,0,0,1-2.54,3c-2.3,2.16-6,3.3-6.13,1.27l-0.24-3.22a1.77,1.77,0,1,0-1.08-.06l0.29,0.08-0.74,3.48c-1.06,2.21-3.22.22-3.22,0.22L200,304.95a1.61,1.61,0,0,0,.46-0.64,1.63,1.63,0,1,0-2.11.92,1.58,1.58,0,0,0,.51.1l0.75,5.91,12.54,1.12,9.24,8,5.19-4.23a1.61,1.61,0,0,0,.46.28A1.63,1.63,0,0,0,228.22,313.38Z" transform="translate(-178.51 -299.78)"/><path class="cls-1" d="M211.54,326.42c3.44,1.37,6.62,3.17,9.9,4.32A15.46,15.46,0,0,0,234,330.3c-4.79.65-8.76-1.34-12.95-3.45a15.28,15.28,0,0,0-2.06-4.54c-6.18-9.38-21.08-11.17-25-1.55,4.76-4.41,11.2-2,15,2-3.71-.3-7.95.38-13.07,2.91l1-.31,0.23-.07,0.32-.09h0C202.94,323.75,207.42,324.77,211.54,326.42Z" transform="translate(-178.51 -299.78)"/><path class="cls-1" d="M197.86,326.11l-0.63.15-0.6.16-0.61.18c-0.36.11-.72,0.23-1.08,0.36l-0.07,0c-0.3.11-.61,0.24-0.92,0.37a11.66,11.66,0,0,0-4,2.67s-0.09-1.57,3-3.22a5.93,5.93,0,0,1-1.15-3.2c0-4.63,1.31-5.35,3.86-8.43-7.13,2.49-6.09,8.76-6.09,8.76a7,7,0,0,1-2.88-1.66,6.73,6.73,0,0,0,1.75,2.55c-1.28,2.2-7.63,2.43-7.72,4.39s2.64,2.82.45,3.71,0.37,1.68.28,2.5-1.76,1.56-.78,2.07,0.17,2-1.2,2.64-2.61,1,4.56,4.53,1.35,16.94,8.6,23.47c-1.43-7.6.36-12.65,13.54-19.42,6.54-3.36,11.24-7.58,13.56-12.13a29.78,29.78,0,0,0,4,1.06c9,1.16,12-1.69,12-1.69a41.55,41.55,0,0,1-14.74-3c-2.7-1.07-5.66-3-9-4.63-3.81-1.83-8.14-3.22-13.22-2.41h-0.06Zm13.83,6.14c-0.92,10.38-10.08,10.86-19.8,20.83,0.24-5.35,8.12-9.86,8.12-15.32,0-3.34-3-6.15-5.4-8.89C202.41,327.32,207.4,329.66,211.69,332.25Z" transform="translate(-178.51 -299.78)"/><path class="cls-1" d="M197.15,325.27l0.33-.09h0Z" transform="translate(-178.51 -299.78)"/><path class="cls-1" d="M196.92,325.34l-1,.31-0.06,0C196.21,325.55,196.57,325.44,196.92,325.34Z" transform="translate(-178.51 -299.78)"/><path class="cls-1" d="M198.91,325.91h0Z" transform="translate(-178.51 -299.78)"/><path class="cls-1" d="M196,326.6l0.61-.18Z" transform="translate(-178.51 -299.78)"/><path class="cls-1" d="M197.22,326.26l0.63-.15Z" transform="translate(-178.51 -299.78)"/><path class="cls-1" d="M194.86,327l0.07,0Z" transform="translate(-178.51 -299.78)"/></svg>